# xmcd CD database file
#
# Track frame offsets:
#	150
#	24522
#	48228
#	70280
#	96392
#	116782
#	156832
#	177545
#	185036
#	211546
#	235798
#	256949
#
# Disc length: 3694 seconds
#
# Revision: 0
# Processed by: cddbd v1.5PL3 Copyright (c) Steve Scherf et al.
# Submitted via: CDex 1.50beta10
#
DISCID=a50e6c0c
DTITLE=Kelly Simonz - Silent Scream
DYEAR=1999
DGENRE=Heavy Metal
TTITLE0=Silent Scream
TTITLE1=Time
TTITLE2=Girl..I Give You My Life For You
TTITLE3=Angel Eyes
TTITLE4=Fly Away
TTITLE5=Paradise Lost
TTITLE6=Forever
TTITLE7=Lies
TTITLE8=Tears In Your Eyes
TTITLE9=Aftermath
TTITLE10=Without You
TTITLE11=Fly Away (Shout Ver)
EXTD=YEAR: 1999
EXTT0=
EXTT1=
EXTT2=
EXTT3=
EXTT4=
EXTT5=
EXTT6=
EXTT7=
EXTT8=
EXTT9=
EXTT10=
EXTT11=
PLAYORDER=
